<?xml version="1.0" encoding="UTF-8" standalone="no"?>
<!DOCTYPE svg PUBLIC "-//W3C//DTD SVG 1.1//EN" "http://www.w3.org/Graphics/SVG/1.1/DTD/svg11.dtd">
<svg width="100%" height="100%" viewBox="0 0 679 681" version="1.1" xmlns="http://www.w3.org/2000/svg" xmlns:xlink="http://www.w3.org/1999/xlink" xml:space="preserve" xmlns:serif="http://www.serif.com/" style="fill-rule:evenodd;clip-rule:evenodd;stroke-linejoin:round;stroke-miterlimit:2;">
    <path d="M397.305,179l-75.134,-0l-0,-144l-71.976,-0l-0,144l-144.194,0.001l-0,-0.001l-71.93,-0l-0,501.722l71.93,-0l-0,-429.722l144.194,-0l-0,429.722l71.976,-0l-0,-429.722l75.134,-0l-0,-72Z" style="fill:#575756;fill-rule:nonzero;"/>
    <rect x="0" y="0" width="106.001" height="106" style="fill:#e30613;"/>
    <path d="M678.042,543.961c0.388,22.689 -2.991,43.413 -12.495,61.353c-9.503,17.951 -21.758,33.275 -37.371,44.58c-16.429,11.937 -36.146,22.559 -59.189,27.294c-20.277,4.167 -42.854,4.277 -74.441,3.041c-35.789,-1.4 -76.96,-5.504 -78.535,-5.506l0.385,-60.979c1.554,0.065 38.023,2.736 68.053,5.394c23.922,2.117 46.672,3.115 53.294,2.187c14.927,-2.096 27.252,-4.293 36.963,-9.367c13.484,-6.971 23.41,-15.42 29.773,-25.345c6.363,-9.918 9.425,-21.78 9.19,-35.573c-0.215,-12.566 -3.247,-22.712 -9.093,-30.432c-5.846,-7.719 -13.869,-15.171 -24.057,-22.356c-11.024,-8.092 -26.071,-16.645 -45.136,-25.677c-19.071,-9.023 -35.069,-17.72 -48.003,-26.086c-18.441,-12.255 -32.64,-26.882 -42.588,-43.889c-9.952,-16.998 -15.12,-36.839 -15.508,-59.528c-0.387,-22.682 4.781,-43.158 15.511,-61.437c10.728,-18.271 25.266,-33.087 43.612,-44.439c15.908,-10.082 33.58,-16.903 53.01,-20.453c8.36,-1.528 31.578,-2.851 56.025,-2.721c31.72,0.17 78.518,7.501 79.452,7.485l-0.289,57.816c-1.119,0.019 -48.034,-6.941 -78.138,-7.882c-21.339,-0.667 -40.823,2.192 -45.498,3.288c-11.275,2.65 -20.831,6.334 -28.659,11.068c-11.61,6.946 -19.856,15.215 -24.739,24.799c-4.887,9.592 -7.247,18.83 -7.096,27.717c0.21,12.265 3.936,22.78 11.177,31.546c7.242,8.774 15.686,16.139 25.337,22.105c11.302,7.167 26.722,15.641 46.252,25.427c19.532,9.787 33.71,17.671 42.538,23.65c19.315,13.168 34.088,27.937 44.325,44.32c10.238,16.382 15.551,35.918 15.938,58.6" style="fill:#e30613;fill-rule:nonzero;"/>
</svg>
