<?xml version="1.0" standalone="no"?>
<!DOCTYPE svg PUBLIC "-//W3C//DTD SVG 20010904//EN"
 "http://www.w3.org/TR/2001/REC-SVG-20010904/DTD/svg10.dtd">
<svg version="1.0" xmlns="http://www.w3.org/2000/svg"
 width="880.000000pt" height="880.000000pt" viewBox="0 0 880.000000 880.000000"
 preserveAspectRatio="xMidYMid meet">
<metadata>
Created by potrace 1.14, written by Peter Selinger 2001-2017
</metadata>
<g transform="translate(0.000000,880.000000) scale(0.100000,-0.100000)"
fill="#000000" stroke="none">
<path d="M900 7335 c1 -533 1 -545 20 -535 12 7 21 7 25 0 3 -5 11 -10 16 -10
6 0 7 5 3 12 -5 7 -3 8 7 2 21 -13 39 -14 39 -1 0 7 7 3 15 -7 8 -11 15 -14
15 -7 0 7 4 10 9 6 5 -3 13 -1 16 5 5 8 11 8 20 0 9 -8 15 -8 20 0 4 6 12 7
24 0 12 -6 22 -5 31 3 10 10 12 8 6 -7 -5 -14 -3 -16 6 -9 7 5 20 9 28 8 8 -1
23 3 33 7 9 5 17 5 17 0 0 -11 51 -9 70 3 10 6 12 4 6 -10 -5 -13 -3 -15 6 -8
7 5 20 9 28 8 8 -1 23 3 33 7 10 5 17 5 17 0 0 -5 10 -8 23 -8 12 1 28 -2 35
-7 9 -7 11 -5 5 9 -6 16 -5 17 9 6 11 -9 18 -10 23 -2 4 7 12 7 25 0 13 -7 21
-7 25 0 5 8 11 8 20 0 9 -8 15 -8 20 0 3 6 12 7 18 3 20 -12 37 -12 37 0 0 7
7 3 15 -7 8 -11 15 -14 15 -7 0 7 4 10 9 6 5 -3 13 -1 16 5 5 8 11 8 20 0 9
-8 15 -8 20 0 4 6 12 7 24 0 12 -6 22 -5 31 3 10 10 12 8 6 -7 -5 -14 -3 -16
6 -9 7 5 20 9 28 8 8 -1 23 3 33 7 9 5 17 5 17 0 0 -4 11 -8 25 -8 14 0 25 3
25 7 0 4 8 5 19 2 11 -3 21 2 25 12 4 10 2 14 -6 9 -7 -5 -8 -3 -3 6 12 19 13
74 2 81 -6 4 -6 13 -1 20 13 21 13 39 1 39 -8 0 -7 3 2 9 9 6 10 11 2 15 -6 4
-8 13 -4 19 12 20 12 37 0 37 -8 0 -7 3 2 9 9 6 10 10 2 16 -9 5 -9 10 -1 20
8 9 8 15 0 20 -7 4 -7 12 0 26 8 13 7 19 0 19 -6 0 -8 5 -4 12 12 19 12 52 1
59 -5 4 -6 12 -1 20 13 21 13 39 1 39 -8 0 -7 3 2 9 9 6 10 11 2 15 -6 4 -8
13 -4 19 12 20 12 37 0 37 -8 0 -7 3 2 9 9 6 10 10 2 16 -9 5 -9 10 -1 20 8 9
8 15 0 20 -7 4 -7 12 0 26 8 13 7 19 0 19 -6 0 -8 5 -4 12 12 18 11 58 -1 58
-6 0 -7 3 0 8 11 8 13 41 2 58 -3 6 -3 14 0 18 10 10 11 46 1 46 -5 0 -6 5 -2
12 12 18 10 98 -1 98 -7 0 -7 3 0 8 6 4 10 16 10 27 0 11 -4 23 -10 27 -6 5
-4 8 5 8 13 0 13 2 1 9 -9 6 -245 10 -548 10 l-533 1 0 -545z"/>
<path d="M3462 7513 c-5 -10 -7 -31 -6 -48 2 -16 -2 -36 -9 -44 -9 -11 -9 -13
0 -8 6 4 14 3 18 -3 3 -5 2 -10 -3 -10 -10 0 -8 -62 2 -78 4 -6 -2 -15 -11
-21 -11 -6 -13 -11 -5 -11 9 0 11 -11 7 -41 -5 -31 -3 -39 6 -33 8 5 10 3 4
-7 -12 -19 -13 -99 -1 -99 5 0 1 -7 -10 -16 -10 -8 -14 -13 -7 -10 8 4 11 -4
11 -23 -1 -19 -5 -28 -12 -24 -7 4 -6 1 1 -7 6 -7 9 -19 6 -28 -5 -11 -3 -13
8 -7 11 7 12 6 3 -6 -5 -8 -9 -36 -8 -64 1 -27 -4 -56 -10 -64 -8 -11 -8 -13
1 -8 6 4 14 3 18 -3 3 -5 2 -10 -3 -10 -10 0 -8 -62 3 -81 5 -7 4 -10 -1 -6
-6 3 -10 -17 -10 -48 0 -36 3 -52 10 -47 6 3 3 -7 -8 -22 -10 -16 -13 -26 -8
-22 6 3 13 2 17 -4 3 -5 2 -10 -4 -10 -5 0 -8 -10 -6 -22 3 -12 -1 -28 -8 -37
-9 -11 -9 -13 0 -8 6 4 14 3 18 -3 3 -5 2 -10 -3 -10 -10 0 -8 -62 3 -81 5 -7
4 -10 -1 -6 -6 3 -10 -17 -10 -48 0 -36 3 -52 10 -47 6 3 3 -7 -8 -22 -10 -16
-13 -26 -8 -22 6 3 13 2 17 -4 3 -5 2 -10 -4 -10 -5 0 -8 -10 -6 -22 3 -12 -1
-28 -8 -37 -9 -11 -9 -13 0 -8 6 4 14 3 18 -3 3 -5 2 -10 -3 -10 -10 0 -8 -62
3 -81 6 -8 4 -10 -5 -4 -10 6 -11 2 -6 -19 4 -17 2 -34 -5 -42 -13 -16 -32 -9
-23 9 3 7 -1 4 -9 -6 -14 -16 -16 -16 -31 -2 -14 15 -16 15 -16 1 0 -9 -5 -16
-11 -16 -5 0 -8 4 -5 8 3 5 -1 9 -9 9 -8 0 -11 -5 -8 -10 3 -6 -2 -5 -12 1
-11 6 -30 6 -47 1 -17 -5 -26 -4 -23 2 4 5 2 9 -4 9 -5 0 -12 -6 -14 -12 -4
-10 -6 -10 -6 0 -1 6 -6 12 -12 12 -5 0 -7 -5 -3 -11 5 -8 2 -9 -11 -1 -11 6
-30 6 -47 1 -17 -5 -26 -4 -23 2 4 5 2 9 -4 9 -5 0 -12 -6 -14 -12 -4 -10 -6
-10 -6 0 -1 6 -6 12 -12 12 -5 0 -7 -5 -3 -11 4 -8 1 -8 -13 -1 -11 6 -25 7
-33 2 -8 -5 -21 -5 -31 1 -23 12 -32 11 -23 -2 5 -8 1 -8 -14 0 -17 9 -23 8
-30 -5 -8 -15 -10 -15 -16 1 -5 14 -9 15 -20 6 -10 -8 -16 -9 -21 -1 -4 7 -13
7 -27 -1 -15 -8 -19 -8 -14 0 4 6 3 11 -3 11 -5 0 -12 -6 -14 -12 -4 -10 -6
-10 -6 0 -1 6 -6 12 -12 12 -5 0 -7 -5 -3 -11 5 -8 2 -9 -11 -1 -11 6 -30 6
-47 1 -17 -5 -26 -4 -23 2 8 12 -2 11 -27 -2 -15 -8 -19 -8 -14 0 4 6 3 11 -3
11 -5 0 -12 -6 -14 -12 -4 -10 -6 -10 -6 0 -1 6 -6 12 -12 12 -5 0 -7 -5 -3
-11 4 -8 1 -8 -13 -1 -12 7 -24 7 -37 0 -14 -8 -17 -7 -12 1 4 6 3 11 -3 11
-5 0 -12 -6 -14 -12 -4 -10 -6 -10 -6 0 -1 6 -6 12 -12 12 -5 0 -8 -4 -4 -9 5
-9 -33 -7 -42 3 -3 2 -18 0 -34 -4 -18 -5 -27 -5 -24 1 4 5 2 9 -4 9 -5 0 -12
-6 -14 -12 -4 -10 -6 -10 -6 0 -1 6 -6 12 -12 12 -5 0 -7 -5 -3 -11 5 -8 2 -9
-11 -1 -11 6 -30 6 -47 1 -17 -5 -26 -4 -23 2 4 5 2 9 -4 9 -5 0 -12 -6 -14
-12 -4 -10 -6 -10 -6 0 -1 6 -6 12 -12 12 -5 0 -7 -5 -3 -11 4 -8 1 -8 -13 -1
-11 6 -25 7 -33 2 -13 -8 -48 -6 -57 4 -3 2 -18 0 -34 -4 -18 -5 -27 -5 -24 1
4 5 2 9 -4 9 -5 0 -12 -6 -14 -12 -4 -10 -6 -10 -6 0 -1 6 -6 12 -12 12 -5 0
-7 -5 -3 -11 5 -8 2 -9 -11 -1 -11 6 -30 6 -47 1 -17 -5 -26 -4 -23 2 4 5 2 9
-4 9 -5 0 -12 -6 -14 -12 -4 -10 -6 -10 -6 0 -1 6 -6 12 -12 12 -5 0 -7 -5 -3
-11 4 -8 1 -8 -13 -1 -11 6 -25 7 -33 2 -13 -8 -48 -6 -57 4 -3 2 -18 0 -34
-4 -18 -5 -27 -5 -24 1 4 5 2 9 -4 9 -5 0 -12 -6 -14 -12 -4 -10 -6 -10 -6 0
-1 6 -6 12 -12 12 -5 0 -7 -5 -3 -11 5 -8 2 -9 -11 -1 -11 6 -30 6 -47 1 -17
-5 -26 -4 -23 2 4 5 2 9 -4 9 -5 0 -12 -6 -14 -12 -4 -10 -6 -10 -6 0 -1 6 -6
12 -12 12 -5 0 -7 -5 -3 -11 4 -8 1 -8 -13 -1 -11 6 -25 7 -33 2 -13 -8 -48
-6 -57 4 -3 2 -18 0 -34 -4 -18 -5 -27 -5 -24 1 4 5 2 9 -4 9 -5 0 -12 -6 -14
-12 -4 -10 -6 -10 -6 0 -1 6 -6 12 -12 12 -5 0 -7 -5 -3 -11 5 -8 2 -9 -11 -1
-11 6 -30 6 -47 1 -17 -5 -26 -4 -23 2 4 5 2 9 -4 9 -5 0 -12 -6 -14 -12 -4
-10 -6 -10 -6 0 -1 6 -6 12 -12 12 -5 0 -7 -5 -3 -11 4 -8 1 -8 -13 -1 -12 7
-25 7 -34 1 -22 -13 -29 -11 -22 9 5 15 4 15 -9 -2 -9 -12 -13 -36 -11 -67 2
-34 -1 -49 -10 -50 -6 0 -3 -4 8 -9 11 -5 15 -9 8 -9 -7 -1 -10 -10 -7 -23 10
-45 10 -77 0 -71 -5 4 -7 0 -4 -9 4 -8 2 -21 -2 -29 -5 -7 -5 -18 -1 -24 13
-17 12 -65 -2 -66 -6 0 -3 -4 8 -9 11 -5 15 -9 8 -9 -7 -1 -10 -10 -7 -23 10
-45 10 -77 0 -71 -5 4 -7 0 -4 -9 4 -8 2 -21 -2 -29 -5 -7 -5 -18 -1 -24 13
-17 12 -65 -2 -66 -6 0 -3 -4 8 -9 11 -5 15 -9 8 -9 -7 -1 -10 -10 -7 -23 10
-45 10 -77 0 -71 -5 4 -7 0 -4 -9 4 -8 2 -21 -2 -29 -5 -7 -5 -18 -1 -24 13
-17 12 -65 -2 -66 -6 0 -3 -4 8 -9 11 -5 15 -9 8 -9 -7 -1 -10 -10 -7 -23 10
-44 10 -77 1 -71 -5 3 -7 0 -5 -8 3 -8 1 -22 -3 -31 -6 -11 -4 -22 6 -32 17
-17 20 -30 5 -21 -14 9 -12 -9 3 -24 6 -7 8 -12 2 -11 -24 5 -27 -1 -9 -16 10
-8 14 -13 7 -10 -13 7 -12 -31 0 -51 4 -6 3 -15 -3 -18 -8 -5 -8 -11 0 -20 8
-10 8 -15 -1 -21 -8 -5 -9 -3 -4 6 5 9 4 11 -4 6 -8 -5 -7 -13 4 -29 8 -12 15
-26 15 -32 0 -5 -5 -3 -10 5 -7 11 -9 7 -7 -15 2 -17 6 -36 10 -42 4 -7 3 -15
-3 -18 -8 -5 -8 -11 0 -20 8 -10 8 -15 -1 -21 -8 -5 -9 -3 -4 6 5 9 4 11 -4 6
-8 -5 -7 -13 4 -29 8 -12 15 -26 15 -32 0 -5 -5 -3 -10 5 -7 11 -9 7 -7 -15 2
-17 6 -36 10 -42 4 -7 3 -15 -3 -18 -8 -5 -8 -11 0 -20 8 -10 8 -15 -1 -21 -8
-5 -9 -3 -4 6 5 9 4 11 -4 6 -8 -5 -7 -13 4 -29 8 -12 15 -26 15 -32 0 -5 -5
-3 -10 5 -7 11 -9 7 -7 -15 2 -17 6 -36 10 -42 4 -7 3 -15 -3 -18 -8 -5 -8
-11 0 -20 8 -10 8 -15 -1 -21 -8 -5 -9 -3 -4 6 5 9 4 11 -4 6 -8 -5 -7 -13 4
-29 8 -12 15 -26 15 -32 0 -5 -5 -3 -10 5 -7 11 -9 7 -7 -15 2 -17 6 -36 10
-42 4 -7 3 -15 -3 -18 -8 -5 -8 -11 0 -20 8 -10 8 -15 -1 -21 -8 -5 -9 -3 -4
6 5 9 4 11 -4 6 -8 -5 -7 -13 4 -29 8 -12 15 -26 15 -32 0 -5 -5 -3 -10 5 -7
11 -9 7 -7 -15 2 -17 6 -36 10 -42 4 -7 3 -15 -3 -18 -8 -5 -8 -11 0 -20 8
-10 8 -15 -1 -21 -8 -5 -9 -3 -4 6 5 9 4 11 -4 6 -8 -5 -7 -13 4 -29 8 -12 15
-26 15 -32 0 -5 -5 -3 -10 5 -7 11 -9 7 -7 -15 2 -17 6 -36 10 -42 4 -7 3 -15
-3 -18 -8 -5 -8 -11 0 -20 8 -10 8 -15 -1 -21 -8 -5 -9 -3 -4 6 5 9 4 11 -4 6
-8 -5 -7 -13 4 -29 8 -12 15 -26 15 -32 0 -5 -5 -3 -10 5 -7 11 -9 7 -7 -15 2
-17 6 -36 10 -42 4 -7 3 -15 -3 -18 -8 -5 -8 -11 0 -20 8 -10 8 -15 -1 -21 -8
-5 -9 -3 -4 6 5 9 4 11 -4 6 -9 -6 -9 -11 -1 -21 15 -19 22 -57 8 -49 -7 5 -9
2 -6 -8 4 -8 2 -21 -2 -29 -5 -7 -5 -18 -1 -24 13 -17 12 -65 -2 -66 -6 0 -3
-4 8 -9 11 -5 15 -9 8 -9 -7 -1 -10 -10 -7 -23 10 -45 10 -77 0 -71 -5 4 -7 0
-4 -9 4 -8 2 -21 -2 -29 -5 -7 -5 -18 -1 -24 13 -17 12 -65 -2 -66 -6 0 -3 -4
8 -9 11 -5 15 -9 8 -9 -7 -1 -10 -10 -7 -23 10 -45 10 -77 0 -71 -5 4 -7 0 -4
-9 4 -8 2 -21 -2 -29 -5 -7 -5 -18 -1 -24 13 -17 12 -65 -2 -66 -6 0 -3 -4 8
-9 11 -5 15 -9 8 -9 -7 -1 -10 -10 -7 -23 10 -45 10 -77 0 -71 -5 4 -7 0 -4
-9 4 -8 2 -21 -2 -29 -5 -7 -5 -18 -1 -24 13 -17 12 -65 -2 -66 -6 0 -3 -4 8
-9 11 -5 15 -9 8 -9 -7 -1 -10 -10 -7 -24 10 -44 10 -76 0 -70 -5 4 -7 0 -4
-9 4 -8 2 -21 -2 -29 -5 -7 -5 -18 -1 -24 13 -17 12 -65 -2 -66 -6 0 -3 -4 8
-9 11 -5 15 -9 8 -9 -7 -1 -10 -10 -7 -23 10 -45 10 -77 0 -71 -5 4 -7 0 -4
-9 4 -8 2 -21 -2 -29 -5 -7 -5 -18 -1 -24 13 -17 12 -65 -2 -66 -6 0 -3 -4 8
-9 11 -5 15 -9 8 -9 -7 -1 -10 -10 -7 -23 10 -45 10 -77 0 -71 -5 4 -7 0 -4
-9 4 -8 2 -21 -2 -29 -5 -7 -5 -18 -1 -24 13 -17 12 -65 -2 -66 -6 0 -3 -4 8
-9 11 -5 15 -9 8 -9 -7 -1 -10 -10 -7 -24 10 -44 10 -76 0 -70 -5 4 -7 0 -4
-9 4 -8 2 -21 -2 -29 -5 -7 -5 -18 -1 -24 13 -17 12 -65 -2 -66 -6 0 -3 -4 8
-9 11 -5 15 -9 8 -9 -7 -1 -10 -10 -7 -23 10 -45 10 -77 0 -71 -5 4 -7 0 -4
-9 4 -8 2 -21 -2 -29 -5 -7 -5 -18 -1 -24 13 -17 12 -65 -2 -66 -6 0 -3 -4 8
-9 11 -5 15 -9 8 -9 -7 -1 -10 -10 -7 -24 10 -44 10 -76 0 -70 -5 4 -7 0 -4
-9 4 -8 2 -21 -2 -29 -5 -7 -5 -18 -1 -24 13 -17 12 -65 -2 -66 -6 0 -3 -4 8
-9 11 -5 15 -9 8 -9 -7 -1 -10 -10 -7 -24 10 -43 10 -76 1 -70 -5 3 -7 0 -5
-8 3 -8 1 -22 -3 -31 -6 -11 -4 -22 6 -32 17 -17 20 -30 5 -21 -14 9 -12 -9 3
-24 6 -7 8 -12 2 -11 -24 5 -27 -1 -9 -16 10 -8 14 -13 7 -10 -13 7 -12 -31 0
-51 4 -6 3 -15 -3 -18 -8 -5 -8 -11 0 -20 8 -10 8 -15 -1 -21 -8 -5 -9 -3 -4
6 5 9 4 11 -3 6 -9 -5 -7 -15 6 -34 12 -19 13 -24 3 -17 -11 6 -13 4 -8 -9 4
-10 7 -21 7 -25 0 -5 11 -7 25 -6 14 2 27 -1 31 -6 7 -12 24 -11 24 2 0 5 -5
7 -12 3 -7 -5 -8 -3 -3 5 5 9 11 9 17 3 6 -6 17 -8 25 -5 8 3 19 0 24 -8 6 -9
9 -10 9 -2 0 7 9 10 22 8 12 -3 28 1 37 8 11 9 13 9 8 0 -4 -6 -3 -14 3 -18 5
-3 10 -1 10 6 0 8 4 8 13 1 6 -5 21 -6 32 -2 11 4 26 5 34 2 8 -3 12 -1 8 5
-3 5 0 10 8 10 8 0 12 -4 10 -8 -7 -10 25 -20 38 -12 7 4 19 8 27 8 8 0 21 4
27 8 9 6 11 3 6 -10 -6 -15 -4 -16 9 -5 11 9 18 10 23 2 8 -13 25 -13 25 1 0
5 -5 7 -12 3 -7 -5 -8 -3 -3 5 5 9 11 9 17 3 6 -6 16 -8 23 -6 7 3 16 1 19 -4
3 -5 17 -7 31 -5 15 3 22 10 18 17 -4 6 1 5 10 -3 9 -7 17 -10 17 -5 0 4 5 3
12 -4 15 -15 28 -15 28 -1 0 5 -5 7 -12 3 -7 -4 -8 -3 -4 5 6 9 11 9 21 1 10
-8 15 -8 20 0 4 7 11 8 18 2 12 -10 44 -8 55 3 4 3 0 10 -7 14 -8 5 -10 14 -5
22 11 19 11 99 -1 99 -7 0 -7 3 0 8 11 8 13 41 2 58 -3 6 -3 14 0 18 10 10 11
46 1 46 -5 0 -6 5 -2 12 12 18 10 98 -1 98 -7 0 -7 3 0 8 11 8 13 41 2 58 -3
6 -3 14 0 18 10 10 11 46 1 46 -5 0 -6 5 -2 12 12 18 10 98 -1 98 -7 0 -7 3 0
8 11 8 13 41 2 58 -3 6 -3 14 0 18 10 10 11 46 1 46 -5 0 -6 5 -2 12 11 17 12
78 2 84 -5 3 -5 11 -1 17 10 17 11 47 1 47 -5 0 -6 5 -2 12 12 18 10 98 -1 98
-7 0 -7 3 0 8 11 8 13 41 2 58 -3 6 -3 14 0 18 10 10 11 46 1 46 -5 0 -6 5 -2
12 12 18 10 98 -1 98 -7 0 -7 3 0 8 11 8 13 41 2 58 -3 6 -3 14 0 18 10 10 11
46 1 46 -5 0 -6 5 -2 12 11 17 12 78 2 84 -5 3 -5 11 -1 17 10 17 11 47 1 47
-5 0 -6 5 -2 12 12 18 10 98 -1 98 -7 0 -7 3 0 8 11 8 13 41 2 58 -3 6 -3 14
0 18 10 10 11 46 1 46 -5 0 -6 5 -2 12 12 18 10 98 -1 98 -7 0 -7 3 0 8 11 8
13 41 2 58 -3 6 -3 14 0 18 10 10 11 46 1 46 -5 0 -6 5 -2 12 11 17 12 78 2
84 -5 3 -5 11 -1 17 10 17 11 47 1 47 -5 0 -6 5 -2 12 12 18 10 98 -1 98 -7 0
-7 3 0 8 11 8 13 41 2 58 -3 6 -3 14 0 18 10 10 11 46 1 46 -5 0 -6 5 -2 12
12 18 10 98 -1 98 -7 0 -7 3 0 8 11 8 13 41 2 58 -3 6 -3 14 0 18 10 10 11 46
1 46 -5 0 -6 5 -2 12 12 18 10 98 -1 98 -7 0 -7 3 0 8 11 8 13 41 2 58 -3 6
-3 14 0 18 10 10 11 46 1 46 -5 0 -6 5 -2 12 12 18 10 98 -1 98 -7 0 -7 3 0 8
11 8 13 41 2 58 -3 6 -3 14 0 18 10 10 11 46 1 46 -5 0 -6 5 -2 12 12 18 10
98 -1 98 -7 0 -7 3 0 8 11 8 13 41 2 58 -3 6 -3 14 0 18 10 10 11 46 1 46 -5
0 -6 5 -2 12 12 18 10 98 -1 98 -7 0 -7 3 0 8 11 8 13 41 2 58 -3 6 -3 14 0
18 10 10 11 46 1 46 -5 0 -6 5 -2 12 12 18 10 98 -1 98 -7 0 -7 3 0 8 11 8 13
41 2 58 -3 6 -3 14 0 18 10 10 11 46 1 46 -5 0 -6 5 -2 12 12 18 10 98 -1 98
-7 0 -7 3 0 8 13 9 14 65 2 73 -5 4 -6 13 -1 20 13 21 13 39 1 39 -8 0 -7 3 2
9 9 6 10 11 2 15 -6 4 -8 13 -4 19 12 20 12 37 0 37 -8 0 -7 3 2 9 9 6 10 10
2 16 -9 5 -9 10 -1 20 8 9 8 15 0 20 -7 4 -7 12 0 26 8 14 7 19 -1 19 -8 0 -9
4 0 13 7 10 7 17 0 24 -16 16 30 56 48 42 10 -9 17 -8 30 2 9 8 14 9 10 2 -5
-8 4 -11 31 -9 21 1 42 4 47 7 9 5 31 4 38 -1 9 -7 38 -7 43 1 3 5 14 4 26 -2
15 -8 22 -8 28 1 5 8 12 7 24 -5 10 -10 16 -12 16 -5 0 7 7 9 17 6 9 -4 19 -2
23 4 5 8 12 6 24 -5 10 -10 16 -12 16 -5 0 7 7 9 17 6 9 -4 19 -2 23 4 5 8 12
6 24 -5 10 -10 16 -12 16 -5 0 7 7 9 17 6 9 -4 19 -2 23 4 5 8 12 6 24 -5 9
-9 16 -12 16 -7 0 5 14 8 30 7 17 -1 33 2 36 7 9 14 24 9 24 -9 0 -11 3 -14 8
-7 4 6 20 10 35 9 15 -1 30 2 33 7 3 5 12 4 20 -3 11 -9 18 -8 31 2 9 8 14 9
10 2 -5 -8 5 -11 33 -9 22 1 43 5 46 9 13 12 24 7 24 -10 0 -11 3 -14 8 -7 4
6 20 10 35 9 15 -1 30 2 33 7 3 5 12 4 20 -3 11 -9 18 -8 31 2 9 8 14 9 10 2
-5 -8 5 -10 35 -8 24 2 44 4 46 5 8 7 29 5 41 -4 15 -11 18 -11 38 5 7 7 13 6
17 0 5 -8 54 -8 64 0 7 5 28 4 37 -2 14 -10 28 -9 42 2 7 7 14 6 18 -1 5 -8
10 -8 20 0 10 8 16 7 24 -7 6 -10 11 -13 11 -6 0 6 8 10 17 9 12 -2 18 -13 19
-33 0 -17 4 -35 8 -41 3 -6 -2 -15 -11 -21 -11 -6 -13 -11 -5 -11 9 0 11 -11
7 -41 -5 -32 -3 -39 7 -33 7 5 5 -4 -6 -20 -10 -16 -13 -26 -8 -22 6 3 13 2
17 -4 3 -5 2 -10 -3 -10 -10 0 -8 -62 3 -81 5 -7 4 -10 -1 -6 -6 3 -10 -17
-10 -48 0 -36 3 -52 10 -47 6 3 3 -7 -8 -22 -10 -16 -13 -26 -8 -22 6 3 13 2
17 -4 3 -5 2 -10 -3 -10 -10 0 -8 -62 2 -78 4 -6 -2 -15 -11 -21 -11 -6 -13
-11 -5 -11 9 0 11 -11 7 -41 -5 -31 -3 -39 6 -33 8 5 10 3 4 -7 -12 -19 -13
-99 -1 -99 5 0 1 -7 -10 -16 -10 -8 -14 -13 -7 -10 8 4 11 -4 11 -23 -1 -19
-5 -28 -12 -24 -7 4 -6 1 1 -7 6 -7 9 -19 6 -28 -5 -11 -3 -13 8 -7 11 7 12 6
3 -6 -5 -8 -9 -36 -8 -64 1 -27 -4 -56 -10 -64 -8 -11 -8 -13 1 -8 6 4 14 3
18 -3 3 -5 2 -10 -3 -10 -10 0 -8 -62 3 -81 5 -7 4 -10 -1 -6 -6 3 -10 -17
-10 -48 0 -36 3 -52 10 -47 6 3 3 -7 -8 -22 -10 -16 -13 -26 -8 -22 6 3 13 2
17 -4 3 -5 2 -10 -4 -10 -5 0 -8 -10 -6 -22 3 -12 -1 -28 -8 -37 -9 -11 -9
-13 0 -8 6 4 14 3 18 -3 3 -5 2 -10 -3 -10 -10 0 -8 -62 3 -81 5 -7 4 -10 -1
-6 -6 3 -10 -17 -10 -48 0 -36 3 -52 10 -47 6 3 3 -7 -8 -22 -10 -16 -13 -26
-8 -22 6 3 13 2 17 -4 3 -5 2 -10 -2 -10 -4 0 -8 -29 -8 -65 0 -36 4 -65 9
-65 6 0 1 -7 -10 -16 -10 -8 -14 -13 -7 -10 8 4 11 -4 11 -23 -1 -19 -5 -28
-12 -24 -7 4 -6 1 1 -7 6 -7 9 -19 6 -28 -5 -11 -3 -13 8 -7 11 7 12 6 3 -6
-11 -15 -12 -128 0 -147 3 -6 -2 -15 -11 -21 -11 -6 -13 -11 -5 -11 9 0 11
-11 7 -41 -5 -32 -3 -39 7 -33 7 5 5 -4 -6 -20 -10 -16 -13 -26 -8 -22 6 3 13
2 17 -4 3 -5 2 -10 -3 -10 -10 0 -8 -62 3 -81 5 -7 4 -10 -1 -6 -6 3 -10 -17
-10 -48 0 -36 3 -52 10 -47 6 3 3 -7 -8 -22 -10 -16 -13 -26 -8 -22 6 3 13 2
17 -4 3 -5 2 -10 -3 -10 -10 0 -8 -62 2 -78 4 -6 -2 -15 -11 -21 -11 -6 -13
-11 -5 -11 9 0 11 -11 7 -41 -5 -31 -3 -39 6 -33 8 5 10 3 4 -7 -12 -19 -13
-99 -1 -99 5 0 1 -7 -10 -16 -10 -8 -14 -13 -7 -10 8 4 11 -4 11 -23 -1 -19
-5 -28 -12 -24 -7 4 -6 1 1 -7 6 -7 9 -19 6 -28 -5 -11 -3 -13 7 -7 9 6 11 4
4 -6 -11 -19 -11 -199 0 -199 6 0 1 -7 -10 -16 -10 -8 -14 -13 -7 -10 8 4 11
-4 11 -23 -1 -19 -5 -28 -12 -24 -7 4 -6 1 1 -7 6 -7 9 -19 6 -28 -5 -11 -3
-13 8 -7 11 7 12 6 3 -6 -11 -15 -12 -128 0 -147 3 -6 -2 -15 -11 -21 -11 -6
-13 -11 -5 -11 9 0 11 -11 7 -41 -5 -32 -3 -39 7 -33 7 5 5 -4 -6 -20 -10 -16
-13 -26 -8 -22 6 3 13 2 17 -4 3 -5 2 -10 -3 -10 -10 0 -8 -62 3 -81 5 -7 4
-10 -1 -6 -6 3 -10 -17 -10 -48 0 -36 3 -52 10 -47 6 3 3 -7 -8 -22 -10 -16
-13 -26 -8 -22 6 3 13 2 17 -4 3 -5 2 -10 -3 -10 -10 0 -8 -62 2 -78 4 -6 -2
-15 -11 -21 -11 -6 -13 -11 -5 -11 9 0 11 -11 7 -41 -5 -31 -3 -39 6 -33 8 5
10 3 4 -7 -12 -19 -13 -99 -1 -99 5 0 1 -7 -10 -16 -10 -8 -14 -13 -7 -10 8 4
11 -4 11 -23 -1 -19 -5 -28 -12 -24 -7 4 -6 1 1 -7 6 -7 9 -19 6 -28 -5 -11
-3 -13 8 -7 11 7 12 6 3 -6 -11 -15 -12 -128 0 -147 3 -6 -2 -15 -11 -21 -11
-6 -13 -11 -5 -11 9 0 11 -11 7 -41 -5 -31 -3 -39 6 -33 8 5 9 3 3 -7 -14 -24
-13 -35 9 -48 18 -12 19 -11 13 6 -6 14 -5 15 5 6 9 -9 17 -9 32 -2 13 8 17 8
13 1 -3 -6 -2 -13 4 -17 5 -3 10 -1 10 6 0 8 4 8 13 1 6 -5 21 -6 32 -2 11 4
26 5 34 2 8 -3 12 -1 8 5 -3 5 0 10 8 10 8 0 12 -4 10 -8 -6 -9 21 -20 29 -11
12 12 46 12 46 -1 0 -8 3 -8 8 -2 9 14 45 14 54 0 5 -6 8 -5 8 3 0 7 5 10 10
7 6 -3 10 0 10 7 0 10 2 10 9 -1 5 -7 13 -11 19 -7 6 3 13 2 17 -4 8 -13 25
-13 25 1 0 5 -5 7 -12 3 -7 -5 -8 -3 -3 5 5 9 11 9 17 3 6 -6 17 -8 25 -5 8 3
19 0 24 -8 6 -9 9 -10 9 -2 0 7 9 10 22 8 12 -3 28 1 37 8 11 9 13 9 8 0 -4
-6 -3 -14 3 -18 5 -3 10 -1 10 6 0 8 4 8 13 1 6 -5 21 -6 32 -2 11 4 26 5 34
2 8 -3 12 -1 8 5 -3 5 0 10 8 10 8 0 12 -4 10 -8 -3 -4 2 -10 11 -13 8 -3 13
-2 10 3 -3 5 1 12 10 15 10 4 13 2 8 -7 -5 -7 0 -6 10 3 10 8 14 16 9 17 -5 2
-8 18 -6 36 4 35 3 101 -1 160 -1 21 2 37 8 37 7 0 8 3 1 8 -10 7 -14 102 -5
102 3 0 6 9 6 20 0 11 -5 20 -11 20 -5 0 -3 5 5 10 10 6 11 10 3 10 -7 0 -13
5 -13 11 0 5 6 7 13 3 8 -5 8 -2 -2 9 -12 15 -11 17 5 17 18 1 18 1 2 11 -10
5 -18 15 -18 20 0 6 4 8 9 5 5 -4 8 2 6 11 -2 10 -4 18 -5 18 -1 0 -3 10 -4
22 -2 13 2 23 8 23 7 0 7 3 1 8 -11 8 -14 102 -4 102 10 0 5 34 -6 42 -6 5 -4
8 5 8 13 0 13 1 0 10 -13 9 -13 10 0 10 13 0 13 1 0 10 -11 7 -11 10 -2 10 10
0 10 5 1 22 -10 18 -9 20 7 14 18 -6 18 -5 0 9 -14 11 -16 15 -5 15 10 1 9 5
-5 15 -17 13 -17 15 -4 15 22 0 32 16 17 26 -8 5 -9 3 -4 -7 5 -8 4 -10 0 -6
-14 12 -15 37 -2 37 7 0 3 7 -7 15 -17 13 -17 15 -4 15 22 0 32 16 17 26 -8 5
-9 3 -4 -7 5 -8 4 -10 0 -6 -14 12 -15 37 -2 37 7 0 3 7 -7 15 -17 13 -17 15
-4 15 22 0 32 16 17 26 -8 5 -9 3 -4 -7 5 -8 4 -10 0 -6 -14 12 -15 37 -2 37
7 0 3 7 -7 15 -17 13 -17 15 -4 15 22 0 32 16 17 26 -8 5 -9 3 -4 -7 5 -8 4
-10 0 -6 -14 12 -15 37 -2 37 7 0 5 5 -3 10 -13 9 -13 10 0 10 9 0 11 3 5 8
-5 4 -11 15 -12 25 -1 13 4 17 15 13 13 -5 12 -2 -2 9 -11 8 -15 15 -10 15 5
0 10 9 10 20 0 11 -5 20 -11 20 -5 0 -3 5 5 10 10 6 11 10 3 10 -7 0 -13 5
-13 11 0 5 4 8 8 5 5 -3 9 1 9 9 0 8 -3 12 -7 10 -3 -2 -6 5 -6 16 0 10 5 19
11 19 6 0 7 3 0 8 -10 7 -14 102 -5 102 3 0 6 9 6 20 0 11 -5 20 -11 20 -5 0
-3 5 5 10 10 6 11 10 3 10 -7 0 -13 5 -13 11 0 5 4 8 8 5 5 -3 9 1 9 9 0 8 -4
12 -8 10 -11 -7 -5 29 6 37 7 5 6 8 -1 8 -5 0 -9 15 -7 33 9 94 6 149 -8 158
-11 7 -11 9 3 9 21 0 32 16 17 26 -8 5 -9 3 -4 -7 5 -8 4 -10 0 -6 -14 12 -15
37 -2 37 7 0 3 7 -7 15 -17 13 -17 15 -4 15 22 0 32 16 17 26 -8 5 -9 3 -4 -7
5 -8 4 -10 0 -6 -14 12 -15 37 -2 37 7 0 3 7 -7 15 -17 13 -17 15 -4 15 22 0
32 16 17 26 -8 5 -9 3 -4 -7 5 -8 4 -10 0 -6 -14 12 -15 37 -2 37 7 0 3 7 -7
15 -17 13 -17 15 -4 15 22 0 32 16 17 26 -8 5 -9 3 -4 -7 5 -8 4 -11 0 -6 -12
10 -17 50 -7 43 5 -3 9 1 9 9 0 8 -3 12 -7 10 -3 -2 -6 5 -6 16 0 10 5 19 11
19 6 0 7 3 0 8 -10 7 -14 102 -5 102 3 0 6 9 6 20 0 11 -5 20 -11 20 -5 0 -3
5 5 10 10 6 11 10 3 10 -7 0 -13 5 -13 11 0 5 6 7 13 3 8 -5 8 -2 -2 9 -12 15
-11 17 5 17 18 1 18 1 2 11 -10 5 -18 15 -18 20 0 6 4 8 9 5 5 -4 8 2 6 11 -2
10 -4 18 -5 18 -1 0 -3 10 -4 23 -2 12 2 22 8 22 7 0 7 3 1 8 -11 8 -14 102
-4 102 10 0 5 34 -6 42 -6 5 -4 8 5 8 13 0 13 1 0 10 -13 9 -13 10 0 10 13 0
13 1 0 10 -11 7 -11 10 -2 10 10 0 10 5 1 22 -10 18 -9 20 7 14 18 -6 18 -5 0
9 -14 11 -16 15 -5 15 10 1 9 5 -5 15 -17 13 -17 15 -4 15 22 0 32 16 17 26
-8 5 -9 3 -4 -7 5 -8 4 -10 0 -6 -14 12 -15 37 -2 37 7 0 3 7 -7 15 -17 13
-17 15 -4 15 22 0 32 16 17 26 -8 5 -9 3 -4 -7 5 -8 4 -10 0 -6 -14 12 -15 37
-2 37 7 0 3 7 -7 15 -17 13 -17 15 -4 15 22 0 32 16 17 26 -8 5 -9 3 -4 -7 5
-8 4 -10 0 -6 -14 12 -15 37 -2 37 7 0 3 7 -7 15 -17 13 -17 15 -4 15 22 0 32
16 17 26 -8 5 -9 3 -4 -7 5 -8 4 -10 0 -6 -14 12 -15 37 -2 37 7 0 5 5 -3 10
-13 9 -13 10 0 10 9 0 11 3 5 8 -5 4 -11 15 -12 25 -1 13 4 17 15 13 13 -5 12
-2 -2 9 -11 8 -15 15 -10 15 5 0 10 9 10 20 0 11 -5 20 -11 20 -5 0 -3 5 5 10
10 6 11 10 3 10 -7 0 -13 5 -13 11 0 5 4 8 8 5 5 -3 9 1 9 9 0 8 -3 12 -7 10
-3 -2 -6 5 -6 16 0 10 5 19 11 19 6 0 7 3 0 8 -10 7 -14 102 -5 102 3 0 6 9 6
20 0 11 -5 20 -11 20 -5 0 -3 5 5 10 10 6 11 10 3 10 -7 0 -13 5 -13 11 0 5 4
8 8 5 5 -3 9 1 9 9 0 8 -4 12 -8 10 -11 -7 -5 29 6 37 7 5 6 8 -1 8 -5 0 -9
15 -7 33 9 94 6 149 -8 158 -11 7 -11 9 3 9 21 0 32 16 17 26 -8 5 -9 3 -4 -7
5 -8 4 -10 0 -6 -14 12 -15 37 -2 37 7 0 3 7 -7 15 -17 13 -17 15 -4 15 22 0
32 16 17 26 -8 5 -9 3 -4 -7 5 -8 4 -10 0 -6 -14 12 -15 37 -2 37 7 0 3 7 -7
15 -17 13 -17 15 -4 15 22 0 32 16 17 26 -8 5 -9 3 -4 -7 5 -8 4 -10 0 -6 -14
12 -15 37 -2 37 7 0 3 7 -7 15 -17 13 -17 15 -4 15 22 0 32 16 17 26 -8 5 -9
3 -4 -7 5 -8 4 -10 0 -6 -14 12 -15 37 -2 37 7 0 3 7 -7 15 -17 13 -17 15 -4
15 22 0 32 16 17 26 -8 5 -9 3 -4 -7 5 -8 4 -10 0 -6 -14 12 -15 37 -2 37 7 0
3 7 -7 15 -17 13 -17 15 -4 15 22 0 32 16 17 26 -8 5 -9 3 -4 -7 5 -8 4 -10 0
-6 -14 12 -15 37 -2 37 7 0 3 7 -7 15 -17 13 -17 15 -4 15 22 0 32 16 17 26
-8 5 -9 3 -4 -7 5 -8 4 -10 0 -6 -14 12 -15 37 -2 37 7 0 3 7 -7 15 -17 13
-17 15 -4 15 22 0 32 16 17 26 -8 5 -9 3 -4 -6 5 -8 4 -11 -2 -7 -12 8 -11 53
1 64 5 4 6 1 2 -7 -6 -12 -5 -12 6 1 9 10 27 15 56 14 24 -1 45 2 48 7 9 14
24 9 24 -9 0 -11 3 -14 8 -7 4 6 20 10 35 9 15 -1 30 2 33 7 3 4 11 5 17 1 16
-11 91 -10 98 0 3 5 13 1 23 -8 10 -10 16 -12 16 -5 0 7 7 9 17 6 9 -4 19 -2
23 4 5 8 12 6 24 -5 10 -10 16 -12 16 -5 0 7 7 9 17 6 9 -4 19 -2 23 4 5 8 12
6 24 -5 10 -10 16 -12 16 -5 0 7 7 9 17 6 9 -4 19 -2 23 4 5 8 12 6 24 -5 9
-9 16 -13 16 -8 0 5 12 8 28 8 15 -1 33 3 40 8 7 6 12 6 12 0 0 -5 11 -9 25
-9 14 0 25 5 25 11 0 5 5 3 10 -5 7 -11 10 -11 10 -2 0 7 5 10 12 6 7 -4 8 -3
4 5 -13 20 -14 61 -3 61 7 0 7 4 -1 12 -7 7 -8 17 -1 30 7 12 6 18 -1 18 -7 0
-8 6 -1 18 5 10 6 24 1 32 -5 8 -5 21 0 30 5 9 5 22 0 30 -5 8 -4 22 1 32 7
12 6 18 -1 18 -7 0 -8 6 -1 19 6 10 8 21 5 24 -11 10 -11 57 -1 57 7 0 7 4 -1
12 -7 7 -8 17 -1 30 7 12 6 18 -1 18 -7 0 -8 6 -1 18 5 10 6 24 1 32 -5 8 -5
21 0 30 5 9 5 22 0 30 -5 8 -4 22 1 32 7 12 6 18 -1 18 -7 0 -8 6 -1 18 6 11
6 24 1 32 -5 9 -5 19 1 26 7 9 5 16 -8 23 -14 8 -15 11 -3 11 8 1 4 6 -9 11
-17 7 -27 6 -31 -2 -6 -8 -9 -8 -14 0 -5 8 -13 8 -28 0 -15 -8 -19 -8 -14 0 9
14 -7 14 -21 0 -8 -8 -13 -8 -17 0 -5 8 -13 8 -28 0 -15 -8 -19 -8 -14 0 4 6
3 11 -3 11 -5 0 -12 -6 -14 -12 -4 -10 -6 -10 -6 0 -1 6 -6 12 -12 12 -5 0 -7
-5 -3 -11 5 -8 2 -9 -11 -1 -11 6 -30 6 -47 1 -17 -5 -26 -4 -23 2 8 12 -2 11
-27 -2 -15 -8 -19 -8 -14 0 4 6 3 11 -3 11 -5 0 -12 -6 -14 -12 -4 -10 -6 -10
-6 0 -1 6 -6 12 -12 12 -5 0 -7 -5 -3 -11 4 -8 1 -8 -13 -1 -12 7 -24 7 -37 0
-14 -8 -17 -7 -12 1 4 6 3 11 -3 11 -5 0 -12 -6 -14 -12 -4 -10 -6 -10 -6 0
-1 6 -6 12 -12 12 -5 0 -7 -5 -3 -11 5 -8 1 -8 -14 0 -26 14 -35 14 -26 0 5
-8 1 -8 -14 0 -17 9 -23 8 -30 -5 -8 -15 -10 -15 -16 1 -5 14 -9 15 -20 6 -11
-9 -16 -9 -21 0 -6 8 -10 7 -16 -2 -6 -10 -9 -11 -9 -1 0 6 -5 12 -11 12 -5 0
-7 -5 -3 -11 5 -8 2 -9 -11 -1 -11 6 -30 6 -47 1 -20 -5 -26 -4 -22 3 5 7 2 9
-9 5 -9 -3 -18 0 -21 9 -3 9 -1 12 4 9 6 -3 10 -2 10 4 0 5 -8 15 -17 20 -17
10 -17 10 -1 11 21 0 32 16 17 26 -8 5 -9 3 -4 -7 5 -8 4 -10 0 -6 -14 12 -15
37 -2 37 7 0 3 7 -7 15 -17 13 -17 15 -4 15 22 0 32 16 17 26 -8 5 -9 3 -4 -7
5 -8 4 -10 0 -6 -14 12 -15 37 -2 37 7 0 3 7 -7 15 -17 13 -17 15 -4 15 22 0
32 16 17 26 -8 5 -9 3 -4 -7 5 -8 4 -10 0 -6 -14 12 -15 37 -2 37 7 0 3 7 -7
15 -17 13 -17 15 -4 15 22 0 32 16 17 26 -8 5 -9 3 -4 -7 5 -8 4 -10 0 -6 -14
12 -15 37 -2 37 7 0 3 7 -7 15 -17 13 -17 15 -4 15 22 0 32 16 17 26 -8 5 -9
3 -4 -7 5 -8 4 -10 0 -6 -14 12 -15 37 -2 37 7 0 3 7 -7 15 -17 13 -17 15 -4
15 22 0 32 16 17 26 -8 5 -9 3 -4 -7 5 -8 4 -10 0 -6 -14 12 -15 37 -2 37 7 0
5 5 -3 10 -13 9 -13 10 0 10 9 0 11 3 5 8 -5 4 -11 15 -12 25 -1 13 4 17 15
13 13 -5 12 -2 -2 9 -11 8 -15 15 -10 15 5 0 10 9 10 20 0 11 -5 20 -11 20 -5
0 -3 5 5 10 10 6 11 10 3 10 -7 0 -13 5 -13 11 0 5 4 8 8 5 5 -3 9 1 9 9 0 8
-3 12 -7 10 -3 -2 -6 5 -6 16 0 10 5 19 11 19 6 0 7 3 0 8 -10 7 -14 102 -5
102 3 0 6 9 6 20 0 11 -5 20 -11 20 -5 0 -3 5 5 10 10 6 11 10 3 10 -7 0 -13
5 -13 11 0 5 4 8 8 5 5 -3 9 1 9 9 0 8 -4 12 -8 10 -11 -7 -5 29 6 37 7 5 6 8
-1 8 -5 0 -9 15 -7 33 9 94 6 149 -8 158 -11 7 -11 9 3 9 21 0 32 16 17 26 -8
5 -9 3 -4 -7 5 -8 4 -10 0 -6 -14 12 -15 37 -2 37 7 0 3 7 -7 15 -17 13 -17
15 -4 15 22 0 32 16 17 26 -8 5 -9 3 -4 -7 5 -8 4 -10 0 -6 -14 12 -15 37 -2
37 7 0 3 7 -7 15 -17 13 -17 15 -4 15 22 0 32 16 17 26 -8 5 -9 3 -4 -7 5 -8
4 -10 0 -6 -14 12 -15 37 -2 37 7 0 3 7 -7 15 -17 13 -17 15 -4 15 28 0 29 16
1 41 -14 13 -23 18 -19 12 4 -7 2 -13 -3 -13 -6 0 -11 5 -11 11 0 8 -4 8 -14
0 -11 -9 -16 -9 -21 0 -6 8 -10 7 -16 -2 -7 -12 -9 -12 -9 0 0 11 -3 11 -15 1
-12 -10 -15 -10 -15 0 0 10 -3 10 -15 0 -12 -10 -15 -10 -15 0 0 10 -3 10 -14
1 -11 -9 -16 -9 -21 0 -6 8 -10 7 -16 -2 -7 -12 -9 -12 -9 0 0 11 -3 11 -15 1
-12 -10 -15 -10 -15 0 0 10 -3 10 -15 0 -12 -10 -15 -10 -15 0 0 9 -3 10 -13
1 -10 -8 -17 -7 -25 1 -9 9 -12 9 -12 -2 0 -13 -2 -13 -9 -1 -8 12 -12 12 -25
2 -12 -11 -16 -11 -16 -1 0 9 -4 9 -13 2 -8 -7 -18 -7 -27 -2 -9 5 -19 5 -27
-2 -9 -7 -13 -7 -13 2 0 9 -4 9 -13 2 -8 -7 -18 -7 -27 -2 -9 5 -19 5 -27 -2
-9 -7 -13 -7 -13 2 0 9 -4 9 -13 2 -8 -7 -18 -7 -27 -2 -9 5 -19 5 -27 -2 -10
-8 -13 -7 -13 3 0 10 -3 10 -11 2 -8 -8 -20 -8 -35 -3 -16 7 -24 6 -24 -1 0
-8 -4 -8 -14 0 -12 10 -16 9 -24 -6z m-2202 -1733 c0 -5 -5 -10 -11 -10 -5 0
-7 5 -4 10 3 6 8 10 11 10 2 0 4 -4 4 -10z m0 -240 c0 -5 -5 -10 -11 -10 -5 0
-7 5 -4 10 3 6 8 10 11 10 2 0 4 -4 4 -10z m0 -240 c0 -5 -5 -10 -11 -10 -5 0
-7 5 -4 10 3 6 8 10 11 10 2 0 4 -4 4 -10z m0 -240 c0 -5 -5 -10 -11 -10 -5 0
-7 5 -4 10 3 6 8 10 11 10 2 0 4 -4 4 -10z m0 -1440 c0 -5 -5 -10 -11 -10 -5
0 -7 5 -4 10 3 6 8 10 11 10 2 0 4 -4 4 -10z m0 -240 c0 -5 -5 -10 -11 -10 -5
0 -7 5 -4 10 3 6 8 10 11 10 2 0 4 -4 4 -10z m0 -240 c0 -5 -5 -10 -11 -10 -5
0 -7 5 -4 10 3 6 8 10 11 10 2 0 4 -4 4 -10z m0 -240 c0 -5 -5 -10 -11 -10 -5
0 -7 5 -4 10 3 6 8 10 11 10 2 0 4 -4 4 -10z m0 -240 c0 -5 -5 -10 -11 -10 -5
0 -7 5 -4 10 3 6 8 10 11 10 2 0 4 -4 4 -10z m0 -240 c0 -5 -5 -10 -11 -10 -5
0 -7 5 -4 10 3 6 8 10 11 10 2 0 4 -4 4 -10z m0 -240 c0 -5 -5 -10 -11 -10 -5
0 -7 5 -4 10 3 6 8 10 11 10 2 0 4 -4 4 -10z m0 -240 c0 -5 -5 -10 -11 -10 -5
0 -7 5 -4 10 3 6 8 10 11 10 2 0 4 -4 4 -10z m0 -240 c0 -5 -5 -10 -11 -10 -5
0 -7 5 -4 10 3 6 8 10 11 10 2 0 4 -4 4 -10z m0 -240 c0 -5 -5 -10 -11 -10 -5
0 -7 5 -4 10 3 6 8 10 11 10 2 0 4 -4 4 -10z m0 -240 c0 -5 -5 -10 -11 -10 -5
0 -7 5 -4 10 3 6 8 10 11 10 2 0 4 -4 4 -10z"/>
<path d="M6822 5763 c-6 -2 -10 -8 -8 -12 3 -4 -1 -8 -9 -8 -8 0 -11 5 -8 10
4 6 1 7 -8 1 -8 -5 -30 -9 -49 -9 -19 -1 -41 -4 -48 -8 -7 -5 -12 -3 -12 4 0
8 -4 8 -12 2 -7 -6 -23 -13 -35 -15 -17 -5 -20 -2 -16 11 3 9 -1 7 -11 -6 -13
-18 -21 -20 -40 -14 -12 5 -29 5 -36 1 -9 -5 -20 -4 -29 3 -12 10 -14 9 -9 -5
5 -12 1 -16 -18 -13 -13 1 -27 -1 -29 -6 -3 -4 -17 -6 -31 -3 -15 3 -23 1 -20
-5 4 -5 -3 -10 -14 -10 -11 -1 -29 -1 -40 -2 -11 0 -23 -5 -26 -11 -5 -7 -2
-8 7 -3 8 5 10 4 6 0 -11 -12 -37 -15 -37 -4 0 4 -7 6 -15 3 -8 -4 -12 -11 -8
-17 3 -6 1 -7 -6 -3 -6 4 -18 2 -26 -4 -8 -6 -19 -9 -25 -5 -5 3 -10 2 -10 -3
0 -6 -7 -13 -16 -16 -10 -4 -13 -2 -8 7 4 6 -5 1 -21 -13 -16 -14 -25 -18 -21
-10 4 8 0 6 -8 -4 -9 -11 -16 -16 -16 -10 0 5 -5 2 -10 -6 -9 -13 -10 -13 -10
0 -1 12 -4 11 -15 -4 -8 -10 -19 -15 -26 -10 -8 5 -10 3 -4 -6 6 -10 4 -12 -9
-7 -9 4 -15 3 -12 -2 6 -9 -22 -26 -36 -23 -5 1 -8 -3 -8 -10 0 -6 -3 -9 -6
-5 -4 3 -13 -1 -21 -9 -8 -8 -19 -12 -24 -9 -5 4 -6 -2 -2 -11 5 -13 3 -16
-10 -11 -10 4 -17 2 -17 -4 0 -6 -7 -8 -15 -5 -11 4 -15 0 -13 -12 2 -11 -3
-17 -14 -16 -11 1 -18 -5 -18 -15 0 -14 -2 -14 -10 -1 -8 12 -10 11 -10 -7 0
-17 -4 -21 -17 -16 -10 4 -14 2 -10 -4 4 -6 -6 -16 -23 -23 -16 -7 -29 -15
-28 -19 2 -18 -3 -31 -13 -31 -5 0 -7 5 -4 10 3 6 4 10 0 10 -3 0 -10 -12 -15
-26 -6 -15 -14 -22 -22 -18 -7 4 -8 3 -4 -4 4 -7 2 -12 -4 -12 -6 0 -8 -4 -5
-10 6 -9 -7 -14 -27 -11 -4 0 -4 -7 -1 -16 4 -11 3 -14 -5 -9 -11 6 -17 -6
-13 -27 1 -4 -7 -7 -16 -5 -12 2 -17 -3 -15 -14 2 -12 -4 -18 -15 -18 -15 0
-16 -2 -3 -10 10 -6 11 -10 3 -10 -7 0 -20 -14 -28 -30 -9 -17 -20 -28 -25
-25 -6 3 -7 -1 -4 -9 3 -9 1 -16 -6 -16 -6 0 -8 -4 -5 -10 3 -5 1 -10 -4 -10
-6 0 -11 -7 -11 -15 0 -8 -5 -15 -11 -15 -5 0 -7 -4 -4 -10 3 -5 1 -10 -5 -10
-6 0 -8 -4 -5 -10 3 -5 1 -10 -5 -10 -6 0 -9 -4 -6 -9 3 -5 -1 -11 -9 -15 -8
-3 -15 -11 -14 -18 0 -10 2 -10 6 0 2 6 9 12 14 12 5 0 0 -13 -12 -29 -12 -17
-18 -34 -14 -42 5 -7 4 -10 -2 -6 -6 4 -14 0 -17 -9 -4 -10 -2 -13 7 -9 6 4 3
-1 -7 -9 -15 -12 -16 -16 -5 -16 9 0 10 -3 3 -8 -10 -6 -26 -60 -39 -130 -2
-12 -7 -27 -11 -34 -4 -6 -3 -8 4 -5 6 5 8 0 5 -13 -3 -11 -10 -20 -15 -20 -6
0 -5 -7 2 -15 7 -8 8 -15 3 -15 -5 0 -9 -19 -8 -42 1 -24 -3 -48 -7 -55 -5 -6
-5 -14 2 -18 6 -4 7 -12 1 -24 -6 -10 -6 -23 0 -32 12 -19 11 -32 -1 -24 -6 3
-7 -1 -4 -9 3 -9 11 -13 18 -9 6 4 6 0 -2 -9 -14 -17 -13 -39 3 -50 6 -5 5 -8
-3 -8 -9 0 -10 -5 -3 -18 5 -10 6 -24 1 -32 -11 -18 -1 -40 19 -41 13 0 12 -2
-3 -8 -14 -5 -16 -10 -7 -15 6 -4 9 -16 6 -27 -4 -10 -2 -19 3 -19 6 0 13 -7
16 -16 3 -8 2 -12 -4 -9 -6 3 -10 1 -10 -4 0 -6 4 -11 9 -11 5 0 8 -11 6 -25
-1 -14 2 -25 6 -25 5 0 9 -7 9 -15 0 -8 6 -15 13 -15 9 0 9 -2 -1 -9 -10 -6
-10 -10 2 -21 9 -7 13 -16 10 -21 -8 -13 6 -50 16 -44 13 8 19 -22 7 -35 -7
-7 -7 -10 -1 -7 12 7 48 -49 39 -62 -3 -5 4 -13 16 -16 17 -6 19 -9 8 -16 -11
-7 -10 -9 5 -9 12 0 16 -5 12 -15 -3 -9 1 -18 9 -21 8 -4 12 -10 9 -15 -3 -5
2 -9 11 -9 9 0 13 -4 10 -10 -3 -5 -2 -10 3 -10 5 0 14 -12 20 -26 7 -14 16
-23 21 -20 5 4 7 -4 4 -16 -4 -19 -3 -20 6 -8 7 10 11 11 11 3 0 -7 14 -26 31
-43 18 -16 28 -30 24 -30 -4 0 2 -9 15 -20 12 -11 27 -17 33 -13 6 4 8 0 4
-10 -3 -9 -3 -16 1 -14 7 2 24 -10 65 -48 12 -11 25 -19 30 -17 4 1 7 -3 7 -9
0 -5 5 -7 12 -3 6 4 9 3 5 -2 -3 -5 1 -18 9 -29 9 -12 14 -14 14 -5 0 9 5 8
16 -6 8 -10 12 -12 9 -4 -4 8 4 3 17 -12 14 -15 28 -25 32 -21 3 3 6 0 6 -7 0
-7 3 -10 6 -7 4 4 15 -2 25 -14 12 -14 18 -16 22 -7 3 8 6 6 6 -5 1 -10 6 -15
11 -12 6 3 10 2 10 -3 0 -6 14 -15 31 -21 19 -7 28 -15 23 -22 -5 -8 -3 -9 6
-4 8 5 18 1 27 -10 9 -14 13 -15 13 -4 1 10 3 9 11 -4 6 -9 14 -15 20 -12 5 4
9 1 9 -4 0 -6 7 -11 15 -11 8 0 15 -5 15 -12 0 -6 3 -8 7 -5 3 4 12 -1 20 -11
8 -9 12 -11 8 -4 -9 18 6 15 21 -5 7 -10 17 -19 23 -19 6 -1 18 -2 26 -3 8 0
24 -10 35 -21 11 -11 20 -15 20 -8 0 6 8 1 19 -10 20 -24 36 -29 26 -9 -4 6 3
2 14 -11 11 -13 29 -24 41 -25 11 -1 20 -5 20 -10 0 -5 7 -6 16 -3 10 4 13 2
8 -6 -5 -8 -2 -9 9 -5 9 3 19 1 23 -5 5 -7 2 -8 -6 -3 -9 5 -11 4 -6 -4 4 -7
13 -10 19 -8 7 2 20 -5 30 -16 9 -11 17 -15 17 -9 0 7 9 3 20 -8 12 -12 25
-18 30 -15 6 4 10 1 10 -5 0 -6 15 -17 33 -25 17 -7 41 -22 52 -32 11 -11 25
-21 30 -24 6 -2 9 -8 7 -12 -1 -5 2 -6 7 -3 5 4 16 -1 24 -9 9 -8 19 -15 24
-15 5 0 15 -9 23 -19 7 -11 17 -18 21 -15 5 3 20 -9 35 -25 15 -17 31 -28 37
-24 6 4 8 0 4 -10 -4 -11 -2 -14 7 -11 8 3 17 0 22 -7 5 -8 3 -10 -7 -4 -12 8
-12 6 0 -8 7 -9 20 -17 27 -17 8 0 14 -7 14 -16 0 -8 5 -12 10 -9 6 3 10 0 10
-7 0 -7 10 -24 21 -38 11 -14 17 -19 13 -11 -5 9 -3 12 4 7 7 -4 12 -14 12
-22 0 -8 7 -17 15 -20 8 -4 12 -10 9 -15 -3 -5 0 -9 6 -9 6 0 9 -4 6 -9 -3 -4
2 -17 10 -27 9 -10 12 -13 8 -5 -5 9 -3 12 4 7 9 -5 9 -13 2 -27 -8 -14 -8
-19 1 -17 6 2 14 -3 17 -11 3 -8 0 -11 -7 -7 -7 5 -9 1 -5 -8 3 -9 10 -16 14
-16 5 0 7 -12 4 -26 -3 -14 -1 -23 5 -20 5 4 7 -3 3 -16 -3 -14 -1 -19 6 -14
8 5 10 2 6 -8 -3 -9 -11 -13 -18 -9 -6 4 -5 -1 3 -10 7 -9 10 -17 5 -17 -5 0
-2 -5 6 -10 8 -5 10 -10 4 -10 -6 0 -11 -7 -11 -15 0 -8 5 -15 11 -15 7 0 7
-3 1 -8 -16 -11 -17 -33 -3 -50 11 -13 11 -14 0 -8 -10 6 -13 3 -12 -10 4 -35
0 -45 -12 -38 -10 6 -10 4 0 -8 10 -13 10 -17 0 -21 -10 -4 -10 -6 0 -6 6 -1
12 -6 12 -12 0 -5 -4 -7 -10 -4 -6 3 -7 -1 -4 -9 4 -9 1 -16 -6 -16 -9 0 -9
-4 1 -17 8 -10 9 -14 2 -10 -6 4 -14 3 -18 -3 -3 -5 -1 -10 5 -10 7 0 5 -7 -4
-16 -9 -8 -14 -20 -11 -25 4 -5 1 -9 -5 -9 -6 0 -9 -4 -6 -9 3 -5 -1 -11 -9
-15 -8 -3 -15 -12 -15 -20 0 -8 -6 -17 -12 -19 -10 -4 -10 -6 -1 -6 9 -1 8 -7
-4 -20 -9 -11 -21 -17 -26 -14 -6 4 -8 0 -4 -10 4 -11 -1 -18 -14 -22 -11 -4
-18 -9 -16 -12 9 -8 -33 -44 -43 -38 -6 4 -7 -1 -3 -11 4 -11 2 -15 -4 -11 -6
4 -13 0 -17 -8 -3 -8 -10 -15 -17 -15 -6 0 -20 -10 -31 -23 -11 -12 -17 -15
-13 -7 4 10 2 9 -8 -2 -8 -10 -19 -18 -26 -18 -6 0 -14 -6 -17 -14 -3 -8 -12
-12 -20 -9 -8 3 -14 1 -14 -5 0 -5 -7 -13 -16 -16 -10 -4 -13 -2 -9 7 4 6 -2
3 -12 -8 -10 -11 -29 -22 -43 -24 -14 -1 -27 -7 -30 -12 -3 -5 -15 -10 -25
-12 -11 -1 -26 -6 -32 -10 -7 -5 -17 -6 -22 -2 -5 3 -12 1 -16 -4 -3 -5 -14
-8 -25 -6 -11 2 -20 0 -20 -5 0 -5 -7 -6 -17 -3 -11 4 -14 3 -9 -5 10 -16 -6
-15 -23 1 -11 10 -12 9 -6 -2 6 -11 4 -13 -7 -8 -9 3 -19 3 -22 -1 -6 -6 -39
-10 -118 -14 -21 -2 -38 -7 -38 -13 0 -5 -5 -3 -10 5 -5 8 -10 10 -10 4 0 -12
-29 -12 -49 1 -10 6 -13 4 -9 -6 5 -12 -2 -14 -28 -11 -19 2 -41 -1 -48 -7
-11 -9 -16 -9 -22 0 -5 8 -3 9 6 4 9 -6 11 -4 5 5 -6 10 -11 9 -22 -5 -7 -11
-13 -14 -13 -9 0 12 -49 12 -68 0 -7 -4 -12 -3 -12 1 0 5 -9 9 -20 10 -13 1
-18 -2 -13 -10 5 -9 3 -9 -8 0 -12 10 -18 10 -27 1 -9 -9 -12 -9 -12 -1 0 7
-9 11 -20 10 -11 -1 -20 -5 -20 -10 0 -4 -5 -5 -11 -1 -19 11 -139 11 -139 0
0 -6 -5 -4 -10 4 -7 12 -14 12 -27 4 -19 -11 -47 -8 -39 5 3 4 -4 7 -15 7 -12
0 -18 -5 -15 -13 4 -9 -2 -8 -19 3 -24 15 -25 15 -25 -2 -1 -18 -1 -18 -11 -1
-7 13 -15 15 -28 8 -9 -5 -22 -6 -29 -2 -6 3 -34 6 -62 5 -27 -1 -48 2 -45 6
5 9 -13 8 -30 -1 -5 -3 -17 -5 -25 -4 -8 0 -18 -4 -22 -10 -5 -6 -8 -4 -8 5 0
11 -12 15 -50 15 -27 0 -50 -4 -50 -9 0 -5 -7 -3 -15 4 -11 9 -15 9 -15 1 0
-7 -5 -9 -11 -5 -7 4 -10 -7 -9 -32 1 -22 1 -43 0 -49 -6 -25 -4 -40 4 -46 4
-4 3 -17 -4 -29 -9 -17 -9 -21 0 -15 9 6 9 3 1 -13 -8 -15 -8 -21 1 -24 8 -3
8 -9 -1 -25 -6 -13 -7 -24 -2 -27 10 -7 9 -25 -2 -43 -5 -8 -3 -13 3 -13 7 0
8 -6 0 -19 -7 -14 -7 -22 0 -26 8 -5 7 -11 -1 -21 -6 -8 -7 -14 -2 -14 5 0 9
-9 9 -19 0 -11 -4 -17 -8 -15 -4 3 -8 1 -8 -5 0 -5 5 -11 11 -13 9 -3 9 -9 0
-25 -6 -12 -8 -24 -3 -27 9 -5 9 -53 -1 -62 -3 -3 -2 -16 3 -29 5 -13 6 -26 2
-30 -4 -4 2 -3 14 3 15 8 24 8 32 0 8 -8 15 -8 27 2 9 7 15 8 15 2 0 -11 38
-10 57 1 6 4 14 3 18 -3 3 -5 15 -10 26 -10 14 0 18 4 13 13 -6 9 -4 9 7 1 26
-20 49 -24 42 -8 -4 10 0 12 11 8 9 -3 14 -9 12 -13 -2 -3 6 -6 19 -6 13 0 21
3 18 8 -7 12 12 8 25 -5 7 -7 12 -8 12 -2 0 10 81 11 98 0 6 -3 13 -2 17 4 4
6 13 7 23 1 9 -5 37 -7 62 -5 27 2 47 -1 52 -9 6 -9 8 -9 8 0 0 12 30 10 52
-3 8 -5 9 -2 5 10 -6 14 -3 15 13 6 11 -6 20 -8 20 -4 0 3 8 0 17 -7 9 -8 14
-9 10 -3 -4 7 6 11 28 11 22 0 32 -4 28 -11 -3 -6 -1 -6 7 1 7 6 19 9 28 6 11
-5 13 -2 7 6 -6 10 -3 11 13 2 26 -14 35 -14 26 0 -4 8 0 8 15 0 14 -8 21 -8
21 -1 0 8 6 8 20 0 14 -8 20 -8 20 0 0 7 7 7 21 -1 16 -8 20 -8 14 1 -5 8 2
10 24 7 17 -3 34 -1 37 5 4 6 9 5 14 -3 6 -9 13 -10 22 -3 11 9 32 11 41 4 1
-1 10 -3 20 -5 12 -2 17 1 13 10 -4 11 0 12 19 5 15 -6 25 -6 25 0 0 5 9 7 20
5 11 -2 20 2 20 8 0 8 3 8 9 -2 6 -9 11 -10 15 -2 5 8 13 8 28 0 15 -8 19 -8
13 0 -4 8 2 10 19 7 15 -3 24 -1 21 3 -4 8 16 11 68 12 9 0 17 5 17 10 0 6 4
8 9 4 5 -3 12 -1 15 4 7 10 25 9 44 -3 8 -4 11 -3 10 4 -2 7 10 14 25 15 16 2
40 11 54 20 14 10 22 12 19 6 -4 -6 -3 -11 3 -11 5 0 13 5 16 10 4 6 11 8 16
5 5 -4 9 -1 9 6 0 8 5 7 17 -2 11 -10 14 -10 9 -1 -7 12 0 15 36 15 11 0 14 5
11 16 -4 9 -3 13 2 9 4 -4 15 -2 23 5 13 9 14 9 8 0 -4 -7 -2 -13 3 -13 6 0
11 5 11 10 0 6 9 10 20 10 11 0 20 5 20 11 0 5 4 8 9 4 5 -3 13 0 17 6 4 8 9
7 15 -2 7 -11 9 -10 9 3 0 11 6 16 20 13 11 -2 23 1 26 7 4 6 2 8 -4 4 -6 -3
-14 -1 -18 6 -4 7 -4 10 1 6 4 -4 21 0 37 8 16 8 33 12 38 9 6 -3 10 1 10 11
0 12 6 15 21 11 15 -4 19 -2 15 8 -3 9 0 12 10 8 7 -3 14 0 14 7 0 6 5 8 10 5
6 -3 13 0 16 8 5 14 29 25 46 23 11 -2 58 46 53 54 -3 4 3 7 13 6 9 0 16 5 14
12 -1 8 2 11 8 7 5 -3 13 1 16 9 3 9 10 13 15 10 5 -3 14 6 20 20 7 14 15 23
20 21 4 -3 11 4 14 16 4 12 12 18 21 15 8 -3 13 0 11 7 -1 7 4 11 12 9 12 -3
12 -1 0 14 -8 10 -9 15 -4 12 11 -6 66 48 57 56 -3 3 2 6 11 6 11 0 15 7 12
21 -4 17 -2 19 11 8 12 -10 13 -9 8 5 -3 9 -1 16 5 16 6 0 10 6 8 13 -1 6 4
11 10 10 7 -2 12 0 11 5 -4 18 23 63 34 56 6 -4 8 -3 4 4 -3 6 -1 14 5 18 8 4
7 9 -2 15 -11 7 -11 9 1 9 8 0 21 9 27 20 11 17 10 18 -5 13 -11 -3 -9 0 6 11
12 10 20 22 17 27 -4 5 2 9 12 9 14 0 15 2 5 9 -11 7 -11 11 2 24 19 19 21 31
4 22 -7 -4 -6 -1 2 7 8 7 17 22 18 33 2 11 9 26 15 34 10 12 9 13 -1 7 -11 -6
-11 -4 -3 13 6 12 16 31 22 42 8 17 8 24 -3 30 -10 7 -10 9 0 9 7 0 10 5 7 10
-3 5 -1 10 5 10 6 0 8 4 5 10 -3 5 -1 19 5 30 8 14 8 20 0 20 -6 0 -8 5 -3 13
12 19 12 37 0 37 -6 0 -2 7 9 16 10 8 13 13 7 9 -7 -3 -13 -1 -13 4 0 6 5 11
11 11 8 0 7 6 -2 17 -10 11 -10 14 -1 9 8 -5 12 0 12 14 0 14 -4 19 -12 15 -7
-4 -6 -1 2 7 16 14 20 32 8 43 -4 4 -2 17 3 28 8 14 8 22 -1 27 -7 5 -9 13 -5
21 13 20 11 71 -3 76 -9 4 -8 9 5 19 15 10 16 15 5 26 -11 11 -12 10 -7 -7 5
-15 4 -16 -3 -6 -5 7 -9 21 -7 30 1 9 -3 19 -9 23 -8 5 -7 8 2 8 9 0 10 5 2
19 -6 13 -7 22 0 26 6 4 5 15 -2 30 -6 13 -15 22 -20 18 -6 -3 -5 3 1 14 8 15
6 26 -6 43 -12 18 -13 21 -2 15 8 -5 5 2 -6 15 -12 14 -14 20 -5 15 12 -7 13
-6 3 7 -7 8 -10 18 -6 21 3 4 1 7 -6 7 -7 0 -11 7 -8 15 4 8 2 17 -3 20 -6 3
-15 15 -21 27 -9 16 -8 19 2 12 8 -4 4 5 -9 20 -12 16 -22 35 -22 43 0 9 -5
11 -12 7 -8 -5 -8 -2 1 10 9 11 10 16 3 14 -12 -3 -30 22 -51 70 -6 12 -16 22
-22 22 -6 0 -9 7 -5 15 3 8 1 14 -3 12 -5 -1 -9 2 -9 6 0 5 -14 21 -31 36 -17
15 -31 33 -31 40 0 7 -4 9 -10 6 -5 -3 -10 -1 -10 6 0 13 -38 49 -52 49 -5 0
-7 4 -3 9 3 5 1 12 -5 16 -6 4 -7 12 -3 18 4 7 -2 5 -13 -3 -10 -8 -16 -11
-12 -6 8 10 -14 36 -24 29 -8 -4 -12 12 -9 30 1 5 -3 6 -8 3 -5 -4 -18 2 -28
12 -10 10 -26 22 -36 25 -10 4 -15 11 -12 17 6 9 -8 14 -27 11 -5 0 -8 5 -8
13 0 8 -7 17 -16 20 -10 4 -13 2 -8 -7 3 -6 -5 0 -18 16 -14 15 -30 27 -37 27
-6 0 -11 5 -11 11 0 5 -5 7 -12 3 -8 -5 -9 -1 -4 12 6 15 5 17 -5 7 -14 -14
-30 -17 -27 -5 2 4 -1 8 -7 10 -5 2 -14 10 -18 18 -5 8 -12 12 -18 9 -5 -4 -9
-1 -9 5 0 6 -5 8 -10 5 -6 -3 -13 1 -16 10 -6 13 -8 14 -15 3 -7 -10 -9 -9 -9
4 0 10 -10 20 -25 24 -14 3 -25 10 -25 16 0 5 -5 6 -10 3 -6 -3 -13 1 -16 10
-6 13 -8 14 -15 3 -7 -10 -9 -10 -9 0 0 6 -7 12 -16 12 -10 0 -14 6 -11 14 4
10 1 13 -8 10 -7 -3 -24 2 -37 10 -14 9 -28 13 -31 9 -4 -3 -7 -1 -7 5 0 7 -7
12 -15 12 -8 0 -15 5 -15 10 0 6 -9 10 -20 10 -12 0 -20 7 -20 18 0 14 -2 15
-10 2 -8 -12 -10 -12 -10 -1 0 8 -3 12 -6 8 -4 -3 -13 1 -21 9 -9 8 -22 13
-29 10 -13 -5 -19 6 -15 27 1 5 -3 6 -8 3 -11 -7 -81 24 -81 35 0 4 -7 10 -16
13 -10 4 -13 2 -8 -7 3 -6 -5 1 -19 16 -17 19 -27 24 -30 15 -4 -10 -6 -10 -6
0 -1 6 -7 12 -14 12 -7 0 -19 9 -26 19 -8 11 -21 17 -29 13 -11 -4 -14 -1 -9
12 4 9 3 15 -2 11 -12 -7 -89 33 -99 52 -5 8 -12 14 -15 14 -21 -3 -27 1 -27
15 0 8 -4 12 -10 9 -5 -3 -17 3 -27 15 -10 11 -24 20 -33 20 -13 0 -13 1 0 10
12 8 11 10 -7 10 -14 0 -23 6 -23 16 0 8 -4 13 -9 9 -5 -3 -12 4 -16 15 -3 11
-15 25 -26 31 -11 5 -17 14 -14 19 3 5 0 12 -6 16 -8 5 -9 3 -4 -7 8 -12 6
-12 -8 0 -9 7 -17 20 -17 28 0 7 -7 16 -15 19 -8 4 -13 10 -10 14 3 4 -2 11
-11 14 -8 3 -12 10 -9 16 3 5 1 10 -5 10 -6 0 -8 5 -5 10 3 6 1 10 -5 10 -7 0
-9 7 -6 15 3 9 -1 18 -9 21 -8 3 -11 12 -8 21 4 10 2 14 -4 10 -12 -8 -12 11
0 30 4 6 2 15 -4 18 -17 11 -27 49 -17 68 6 11 5 17 -3 17 -8 0 -7 5 2 17 11
13 11 17 1 20 -6 3 -9 10 -5 16 11 18 11 47 0 47 -6 0 -2 10 9 22 10 12 13 18
7 14 -7 -4 -13 -2 -13 3 0 6 4 11 8 11 9 0 36 88 33 108 -1 7 2 12 6 11 19 -3
27 2 14 10 -11 7 -10 12 5 27 11 11 25 32 31 47 7 15 18 27 24 27 6 0 8 7 5
16 -3 8 -2 12 4 9 5 -3 15 5 21 19 7 14 16 23 20 20 5 -3 9 0 9 6 0 6 4 9 9 5
5 -3 12 4 16 15 4 11 11 18 16 15 5 -4 9 -2 9 4 0 5 14 20 32 32 17 13 28 17
23 9 -5 -9 -4 -11 3 -6 7 4 12 14 12 22 0 8 4 13 9 9 12 -7 62 15 56 25 -3 5
2 11 11 14 8 3 12 2 9 -4 -3 -6 1 -7 9 -4 9 3 16 14 17 23 0 9 3 11 5 4 3 -7
12 -9 20 -6 7 3 11 10 7 17 -4 6 2 4 12 -4 15 -12 17 -12 10 -1 -6 11 -2 13
19 9 18 -4 23 -2 17 6 -6 8 1 11 26 12 19 1 39 8 44 15 7 12 9 11 9 -1 0 -13
1 -13 10 0 5 8 12 11 16 7 4 -4 14 -1 22 6 13 10 14 9 7 -3 -7 -12 -6 -13 7
-3 8 7 18 10 21 6 4 -3 7 -1 7 4 0 13 18 12 39 -1 10 -7 12 -6 6 4 -6 10 -4
12 8 7 9 -3 19 -2 22 3 4 6 14 6 27 -1 17 -9 20 -9 15 3 -4 12 3 13 39 8 24
-4 41 -3 39 0 -3 4 12 7 33 6 20 -1 40 3 44 9 5 6 8 5 8 -3 0 -9 5 -10 18 -3
10 5 24 6 31 1 8 -4 26 -4 41 0 15 4 34 3 43 -2 12 -6 17 -5 17 4 0 10 2 10 9
0 11 -19 15 -19 35 -3 10 9 20 11 24 5 10 -13 42 -14 42 -2 0 7 5 7 13 1 15
-11 27 -11 46 1 10 6 16 6 19 -2 2 -7 11 -8 27 -2 14 5 27 6 29 1 5 -7 30 -8
61 -1 6 1 12 1 15 0 18 -8 80 -5 80 4 0 6 4 5 9 -3 5 -7 15 -11 22 -9 8 3 22
1 31 -4 14 -7 16 -5 11 9 -5 14 -3 16 7 6 9 -8 19 -9 30 -3 13 7 22 5 30 -5 9
-11 17 -12 31 -4 14 7 19 6 19 -3 0 -9 3 -9 10 2 9 13 10 13 10 0 0 -13 1 -13
10 0 6 10 10 11 10 3 0 -7 5 -13 11 -13 5 0 8 4 4 9 -3 5 -1 12 4 16 6 3 7 13
4 22 -5 12 -3 14 8 8 10 -7 9 -1 -4 18 -15 24 -16 26 0 20 12 -5 14 -3 7 8
-12 19 -12 62 1 71 6 5 6 8 -2 8 -7 0 -10 7 -7 15 4 8 1 15 -6 15 -9 0 -6 8 6
22 10 12 13 18 6 14 -8 -5 -11 -1 -9 13 2 11 6 23 9 26 10 11 -4 45 -16 38 -6
-3 -3 2 6 13 13 15 15 23 6 32 -8 8 -8 15 1 26 8 9 8 16 2 20 -6 4 -8 13 -4
21 3 9 -1 15 -8 15 -10 0 -10 3 -1 12 9 9 9 15 -1 27 -9 11 -9 13 0 8 6 -4 14
-3 18 3 3 5 2 10 -2 10 -12 0 -10 60 2 60 5 0 2 7 -7 14 -10 7 -15 16 -12 19
3 3 -1 4 -10 3 -8 -1 -19 -5 -22 -9 -4 -4 -13 -2 -19 3 -9 7 -21 7 -39 0 -15
-5 -25 -6 -22 -1 3 5 -7 11 -23 13 -23 3 -28 1 -24 -11 3 -12 2 -12 -7 1 -6
10 -17 15 -27 11 -12 -5 -14 -3 -8 8 7 12 6 12 -7 1 -9 -7 -19 -9 -22 -4 -4 7
-51 9 -51 2 0 -1 -10 -3 -22 -4 -13 -2 -23 0 -23 3 0 8 -78 6 -86 -2 -4 -3
-15 -2 -25 4 -14 7 -19 6 -19 -3 0 -10 -2 -10 -9 0 -4 8 -12 14 -16 14 -4 0
-12 -6 -16 -14 -5 -7 -9 -8 -9 -2 0 6 -7 11 -15 11 -8 0 -15 -4 -15 -9 0 -6
-33 5 -46 16 0 1 -8 -5 -17 -13 -10 -7 -17 -9 -17 -4 0 5 -9 9 -20 10 -11 1
-20 -3 -20 -8 0 -6 -6 -7 -12 -2 -18 11 -58 12 -64 1 -3 -4 -13 -4 -23 2 -12
6 -22 5 -29 -2 -9 -9 -12 -9 -12 0 0 9 -5 10 -17 3 -10 -5 -26 -5 -40 0 -13 5
-23 5 -23 1 0 -4 -9 -8 -20 -9 -11 -1 -18 2 -15 8 7 10 6 10 -13 2z m528
-4467 c0 -2 -8 -10 -17 -17 -16 -13 -17 -12 -4 4 13 16 21 21 21 13z"/>
<path d="M7615 5150 c-3 -5 -1 -10 4 -10 6 0 11 5 11 10 0 6 -2 10 -4 10 -3 0
-8 -4 -11 -10z"/>
</g>
</svg>
